<svg width="694" height="675" viewBox="0 0 694 675" fill="none" xmlns="http://www.w3.org/2000/svg">
<path fill-rule="evenodd" clip-rule="evenodd" d="M399.786 76.115C416.884 103.532 460.089 129.584 514.054 141.222C568.019 152.859 618.252 147.214 644.958 129.214C652.578 124.448 658.623 117.525 662.332 109.316C666.364 98.3027 667.608 88.262 660.995 78.1512C650.435 62.3038 637.547 48.1541 622.768 36.1806C622.603 36.0539 622.397 35.9955 622.191 36.0172C621.985 36.0372 621.796 36.1389 621.662 36.2957C621.544 36.4341 621.479 36.6109 621.479 36.7943C621.479 36.9761 621.544 37.1529 621.662 37.2913C626.961 43.9317 629.127 50.8256 627.768 57.0959C623.16 78.6832 578.711 87.0346 528.156 76.045C477.601 65.0554 440.456 39.0273 445.019 17.51C446.447 10.8462 451.931 5.17795 460.204 1.31408C460.348 1.24738 460.464 1.1323 460.532 0.988885C460.601 0.843802 460.614 0.6804 460.572 0.526979C460.529 0.350212 460.418 0.19677 460.262 0.101716C460.107 0.00666186 459.92 -0.0233413 459.744 0.0183492C440.955 4.666 423.008 12.247 406.561 22.4845C387.574 34.3296 388.127 56.4939 399.786 76.115ZM249.451 68.6225C241.121 62.967 232.029 58.5172 222.446 55.4063C222.277 55.378 222.124 55.2848 222.02 55.1466C221.916 55.01 221.87 54.8368 221.89 54.6669C221.901 54.5737 221.931 54.4837 221.98 54.4038C222.027 54.3222 222.09 54.2523 222.167 54.199C222.244 54.144 222.331 54.1057 222.423 54.0874C222.514 54.0674 222.61 54.069 222.702 54.089C263.732 62.2375 300.941 83.5956 328.607 114.879C357.141 147.756 394.227 181.884 462.373 204.388C474.053 208.306 485.977 211.455 498.071 213.815C606.524 237.105 698.523 204.896 684.615 129.735C684.583 129.579 684.607 129.417 684.684 129.277C684.76 129.138 684.884 129.029 685.033 128.973C685.121 128.939 685.215 128.926 685.308 128.929C685.402 128.934 685.494 128.958 685.579 128.999C685.664 129.041 685.739 129.098 685.8 129.169C685.861 129.239 685.908 129.322 685.937 129.411C694.126 157.204 695.799 186.5 690.828 215.039C678.868 270.145 583.972 297.547 484.533 276.129C377.306 253.047 345.969 203.117 317.922 154.111C317.058 152.599 316.196 151.088 315.336 149.579C298.388 119.837 281.834 90.7875 249.451 68.6225ZM120.512 62.3593C93.28 72.2518 68.7054 88.2511 48.6919 109.121C48.6249 109.187 48.5712 109.266 48.5343 109.354C48.4991 109.441 48.479 109.534 48.479 109.629C48.479 109.725 48.4991 109.818 48.5343 109.905C48.5712 109.993 48.6249 110.072 48.6919 110.138C48.816 110.245 48.972 110.304 49.1346 110.304C49.2973 110.304 49.4549 110.245 49.5773 110.138C108.112 60.624 181.978 124.237 216.109 229.703C220.122 241.347 223.364 253.24 225.81 265.305C240.374 335.4 229.207 384.523 214.899 425.751C201.475 465.311 201.475 508.163 214.899 547.723C214.931 547.81 214.979 547.89 215.041 547.958C215.103 548.027 215.18 548.082 215.264 548.122C215.303 548.14 215.343 548.154 215.384 548.164C215.433 548.176 215.483 548.184 215.534 548.185C215.626 548.189 215.719 548.172 215.806 548.139C215.964 548.087 216.094 547.975 216.173 547.828C216.25 547.683 216.269 547.511 216.225 547.353C214.112 537.469 213.438 527.334 214.225 517.258C217.301 478.154 234.309 449.281 251.707 419.745L251.708 419.744L251.708 419.743C252.591 418.245 253.474 416.745 254.357 415.241C283.112 366.583 311.031 314.404 277.297 210.096C246.052 113.38 174.535 45.0203 120.512 62.3593ZM1.12504 211.868C0.969583 211.96 0.787379 211.999 0.608519 211.975C0.41963 211.932 0.254134 211.82 0.143809 211.661C0.0318124 211.504 -0.0166608 211.311 0.00506986 211.119C2.96044 192.255 8.75416 173.947 17.1907 156.814C22.7102 145.996 31.9859 142.057 43.5834 140.064C52.5715 139.179 61.6214 140.961 69.6033 145.184C98.6638 159.433 128.859 200.392 145.905 253.166C162.951 305.943 162.092 356.608 146.879 385.221C135.746 405.237 116.752 416.752 96.9705 406.234C79.7465 397.05 64.0904 385.196 50.5856 371.112C50.4853 370.985 50.4302 370.828 50.4335 370.668C50.4352 370.506 50.492 370.351 50.5973 370.227C50.701 370.104 50.8447 370.02 51.0035 369.992C51.1623 369.963 51.3262 369.99 51.4682 370.069C59.0288 375.397 66.6814 377.251 73.1989 375.188C94.2107 368.332 98.037 322.923 82.1502 273.485C66.2635 224.046 36.6011 189.294 15.5675 196.245C9.44452 198.191 4.55011 203.519 1.46603 211.466C1.40084 211.635 1.2805 211.776 1.12504 211.868ZM575.867 539.762C575.705 539.849 575.517 539.869 575.34 539.819C575.21 539.744 575.111 539.628 575.056 539.49C575.002 539.351 574.995 539.2 575.035 539.057C575.877 529.895 573.658 522.418 568.566 517.802C551.867 503.032 510.389 522.371 475.146 560.728C439.903 599.085 424.676 641.874 441.235 656.574C446.022 660.937 453.145 662.505 461.624 661.19C461.807 661.166 461.994 661.203 462.154 661.294C462.316 661.386 462.44 661.527 462.511 661.697C462.58 661.893 462.57 662.108 462.482 662.298C462.396 662.487 462.238 662.635 462.043 662.713C444.09 669.555 425.192 673.672 405.992 674.921C393.707 675.637 385.556 669.522 377.966 660.544C372.67 653.23 369.672 644.537 369.347 635.549C367.152 603.4 387.657 557.035 425.189 516.025C462.721 475.015 507.329 450.527 540.026 449.373C563.126 449.005 582.72 459.621 583.514 481.938C584.156 501.339 581.69 520.718 576.204 539.358C576.15 539.531 576.029 539.677 575.867 539.762ZM646.955 306.722C646.918 306.809 646.866 306.885 646.799 306.951C619.186 338.272 582.029 359.697 541.024 367.942C498.083 376.249 449.851 391.127 396.256 438.722C386.998 446.864 378.283 455.598 370.166 464.869C295.611 546.962 277.228 642.385 349.439 668.044C349.586 668.104 349.71 668.213 349.791 668.351C349.871 668.489 349.901 668.649 349.879 668.808C349.866 668.901 349.832 668.991 349.782 669.071C349.732 669.151 349.665 669.22 349.587 669.272C349.508 669.325 349.419 669.36 349.326 669.375C349.232 669.392 349.137 669.387 349.044 669.363C320.937 662.569 294.779 649.401 272.609 630.884C230.596 593.03 254.296 497.261 322.7 422.017C396.464 340.894 455.608 338.812 512.289 339.089C514.064 339.098 515.837 339.11 517.608 339.121C551.889 339.342 585.427 339.559 620.894 322.66C629.992 318.309 638.417 312.684 645.917 305.955C646.039 305.85 646.195 305.791 646.357 305.791C646.52 305.791 646.677 305.85 646.799 305.955C646.866 306.02 646.918 306.097 646.955 306.183C646.991 306.268 647.01 306.36 647.01 306.454C647.01 306.545 646.991 306.637 646.955 306.722Z" fill="black"/>
</svg>
