<svg width="60" height="22" viewBox="0 0 60 22" fill="none" xmlns="http://www.w3.org/2000/svg">
<g clip-path="url(#clip0_301_162)">
<path d="M9.57066 13.6267V16.4165C9.58147 16.5982 9.44396 16.7544 9.2632 16.7652C9.25002 16.7659 9.23684 16.7659 9.22367 16.7652H0.847848C0.667087 16.7761 0.511666 16.6379 0.500854 16.4563C0.500179 16.443 0.500179 16.4298 0.500854 16.4165V0.838792C0.490042 0.657146 0.627894 0.500965 0.808655 0.4901C0.821832 0.489421 0.834671 0.489421 0.847848 0.4901H4.11033C4.29109 0.479235 4.44651 0.617761 4.45732 0.799407C4.458 0.812648 4.458 0.82589 4.45732 0.839131V13.2769H9.22367C9.40443 13.2661 9.55985 13.4043 9.571 13.5859C9.57167 13.5995 9.57167 13.6131 9.571 13.6267H9.57066Z" fill="white"/>
<path d="M22.3656 5.72213V16.4172C22.3768 16.5988 22.2393 16.755 22.0585 16.7658C22.0453 16.7665 22.0318 16.7665 22.0187 16.7658H18.9876C18.7994 16.7692 18.644 16.6188 18.6406 16.4297C18.6406 16.4256 18.6406 16.4212 18.6406 16.4172L18.548 15.185C17.7845 16.301 16.6509 17.0684 15.3322 17.0684C12.8103 17.0684 10.9824 15.1382 10.9824 12.0926V5.72213C10.9716 5.54048 11.1091 5.3843 11.2899 5.37344C11.3031 5.37276 11.3163 5.37276 11.3294 5.37344H14.453C14.6338 5.36223 14.7892 5.50042 14.8004 5.68207C14.8011 5.69531 14.8011 5.70889 14.8004 5.72213V11.2785C14.8004 13.0922 15.911 13.4646 16.6283 13.4646C17.9703 13.4646 18.5491 12.4882 18.5491 11.6047V5.72213C18.5382 5.54048 18.6761 5.3843 18.8569 5.37344C18.87 5.37276 18.8829 5.37276 18.896 5.37344H22.0197C22.2004 5.36291 22.3555 5.50144 22.3663 5.68308C22.367 5.69599 22.367 5.70923 22.3663 5.72213H22.3656Z" fill="white"/>
<path d="M43.3275 10.0924V16.4164C43.3383 16.5981 43.2004 16.7542 43.0197 16.7651C43.0065 16.7658 42.9933 16.7658 42.9801 16.7651H39.8565C39.6758 16.776 39.5207 16.6378 39.5095 16.4561C39.5089 16.4429 39.5089 16.4297 39.5095 16.4164V10.9059C39.5095 9.09252 38.4682 8.69732 37.6817 8.69732C36.4322 8.69732 35.7382 9.72031 35.7382 10.3715V16.4164C35.749 16.5981 35.6112 16.7542 35.4304 16.7651C35.4172 16.7658 35.4041 16.7658 35.3909 16.7651H32.2673C32.0865 16.776 31.9311 16.6378 31.9203 16.4561C31.9196 16.4429 31.9196 16.4297 31.9203 16.4164V10.9059C31.9203 9.09252 30.9023 8.69732 30.1157 8.69732C28.7044 8.69732 28.1723 10.0924 28.1723 10.6503V16.4164C28.1831 16.5981 28.0453 16.7542 27.8645 16.7651C27.8513 16.7658 27.8381 16.7658 27.825 16.7651H24.7013C24.5206 16.776 24.3652 16.6378 24.3544 16.4561C24.3537 16.4429 24.3537 16.4297 24.3544 16.4164V5.72138C24.3435 5.53974 24.4811 5.38356 24.6618 5.37269C24.675 5.37201 24.6882 5.37201 24.7013 5.37269H27.7324C27.9206 5.3693 28.076 5.51971 28.0794 5.70882C28.0794 5.7129 28.0794 5.71731 28.0794 5.72138L28.172 7.11649C28.8659 5.9543 29.9998 5.11703 31.5963 5.11703C33.0076 5.11703 34.257 5.86127 35.0206 7.16301C35.8838 5.85889 37.3495 5.08749 38.9078 5.11703C41.4526 5.11703 43.3268 7.04655 43.3268 10.0924H43.3275Z" fill="white"/>
<path d="M56.5153 5.76774L50.5228 20.9038C50.4593 21.0783 50.2907 21.191 50.1062 21.1828H47.0522C46.7974 21.1828 46.6589 21.0433 46.7744 20.7876L48.4405 16.7894L44.0677 5.76876C43.9752 5.51276 44.0907 5.37322 44.3451 5.37322H47.4917C47.6762 5.36507 47.8448 5.47813 47.9083 5.65231L50.2684 12.2323L52.6284 5.65231C52.6919 5.47779 52.8605 5.36507 53.045 5.37322H56.2379C56.4926 5.37288 56.6078 5.51242 56.5153 5.76808V5.76774Z" fill="white"/>
<path d="M55.4739 15.0446C55.4739 13.9276 56.375 13.0217 57.487 13.0217C58.5986 13.0217 59.5 13.9272 59.5 15.0446C59.5 16.1616 58.5989 17.0675 57.487 17.0675C56.3757 17.0668 55.4746 16.1616 55.4739 15.0446Z" fill="white"/>
</g>
<defs>
<clipPath id="clip0_301_162">
<rect width="59" height="20.694" fill="white" transform="translate(0.5 0.489258)"/>
</clipPath>
</defs>
</svg>
